{"glyphs":{"0":{"ha":1153,"x_min":68,"x_max":1085,"o":"m 814 678 q 746 746 814 746 l 746 949 q 1085 678 1085 949 l 1085 271 q 746 0 1085 0 l 475 0 l 475 203 l 746 203 q 814 271 814 203 l 814 678 m 339 271 q 407 203 339 203 l 407 0 q 68 271 68 0 l 68 678 q 407 949 68 949 l 678 949 l 678 746 l 407 746 q 339 678 339 746 l 339 271 z "},"1":{"ha":610,"x_min":68,"x_max":543,"o":"m 271 678 l 543 678 l 543 0 l 271 0 l 271 678 m 543 746 l 68 746 l 68 949 l 543 949 l 543 746 z "},"2":{"ha":1153,"x_min":68,"x_max":1085,"o":"m 746 746 l 68 746 l 68 949 l 746 949 q 1085 678 1085 949 l 1085 610 q 746 339 1085 339 l 610 339 l 610 543 l 746 543 q 814 610 814 543 l 814 678 q 746 746 814 746 m 1085 203 l 1085 0 l 68 0 l 68 271 q 407 543 68 543 l 543 543 l 543 339 l 407 339 q 339 271 339 339 l 339 203 l 1085 203 z "},"3":{"ha":1153,"x_min":68,"x_max":1085,"o":"m 203 339 l 203 543 l 543 543 l 543 339 l 203 339 m 746 746 l 68 746 l 68 949 l 746 949 q 1085 678 1085 949 l 1085 610 q 1034 441 1085 505 q 1085 271 1085 376 q 746 0 1085 0 l 68 0 l 68 203 l 746 203 q 814 271 814 203 q 746 339 814 339 l 610 339 l 610 543 l 746 543 q 814 610 814 543 l 814 678 q 746 746 814 746 z "},"4":{"ha":1153,"x_min":68,"x_max":1085,"o":"m 1017 271 l 1017 0 l 746 0 l 746 949 l 1017 949 l 1017 475 l 1085 475 l 1085 271 l 1017 271 m 68 543 l 68 949 l 339 949 l 339 543 q 407 475 339 475 l 678 475 l 678 271 l 407 271 q 68 543 68 271 z "},"5":{"ha":1153,"x_min":68,"x_max":1085,"o":"m 407 543 l 543 543 l 543 339 l 407 339 q 68 610 68 339 l 68 949 l 1085 949 l 1085 746 l 339 746 l 339 610 q 407 543 339 543 m 746 0 l 68 0 l 68 203 l 746 203 q 814 271 814 203 q 746 339 814 339 l 610 339 l 610 543 l 746 543 q 1085 271 1085 543 q 746 0 1085 0 z "},"6":{"ha":1153,"x_min":68,"x_max":1085,"o":"m 407 949 l 1085 949 l 1085 746 l 407 746 q 339 678 339 746 l 339 271 q 407 203 339 203 l 543 203 l 543 0 l 407 0 q 68 271 68 0 l 68 678 q 407 949 68 949 m 746 339 l 407 339 l 407 543 l 746 543 q 1085 271 1085 543 q 746 0 1085 0 l 610 0 l 610 203 l 746 203 q 814 271 814 203 q 746 339 814 339 z "},"7":{"ha":1153,"x_min":27,"x_max":1126,"o":"m 27 0 l 773 949 l 1126 949 l 380 0 l 27 0 m 525 746 l 68 746 l 68 949 l 685 949 l 525 746 z "},"8":{"ha":1153,"x_min":68,"x_max":1085,"o":"m 746 746 l 610 746 l 610 949 l 746 949 q 1085 678 1085 949 l 1085 610 q 1034 441 1085 505 q 1085 271 1085 376 q 746 0 1085 0 l 610 0 l 610 203 l 746 203 q 814 271 814 203 q 746 339 814 339 l 407 339 q 339 271 339 339 q 407 203 339 203 l 543 203 l 543 0 l 407 0 q 68 271 68 0 q 119 441 68 376 q 68 610 68 505 l 68 678 q 407 949 68 949 l 543 949 l 543 746 l 407 746 q 339 678 339 746 l 339 610 q 407 543 339 543 l 746 543 q 814 610 814 543 l 814 678 q 746 746 814 746 z "},"9":{"ha":1153,"x_min":68,"x_max":1085,"o":"m 746 0 l 68 0 l 68 203 l 746 203 q 814 271 814 203 l 814 678 q 746 746 814 746 l 610 746 l 610 949 l 746 949 q 1085 678 1085 949 l 1085 271 q 746 0 1085 0 m 407 543 l 746 543 l 746 339 l 407 339 q 68 610 68 339 l 68 678 q 407 949 68 949 l 543 949 l 543 746 l 407 746 q 339 678 339 746 l 339 610 q 407 543 339 543 z "},"\u0000":{"ha":0,"x_min":0,"x_max":0,"o":""}," ":{"ha":345,"x_min":0,"x_max":0,"o":""},"!":{"ha":407,"x_min":68,"x_max":339,"o":"m 68 203 l 339 203 l 339 0 l 68 0 l 68 203 m 68 949 l 339 949 l 339 271 l 68 271 l 68 949 z "},"\"":{"ha":746,"x_min":68,"x_max":678,"o":"m 68 949 l 339 949 l 339 610 l 68 610 l 68 949 m 407 949 l 678 949 l 678 610 l 407 610 l 407 949 z "},"#":{"ha":1153,"x_min":68,"x_max":1085,"o":"m 203 610 l 68 610 l 68 814 l 203 814 l 203 949 l 475 949 l 475 339 l 610 339 l 610 136 l 475 136 l 475 0 l 203 0 l 203 136 l 68 136 l 68 339 l 203 339 l 203 610 m 949 814 l 1085 814 l 1085 610 l 949 610 l 949 339 l 1085 339 l 1085 136 l 949 136 l 949 0 l 678 0 l 678 610 l 543 610 l 543 814 l 678 814 l 678 949 l 949 949 l 949 814 z "},"$":{"ha":1153,"x_min":68,"x_max":1085,"o":"m 407 543 l 543 543 l 543 339 l 407 339 q 68 610 68 339 l 68 678 q 407 949 68 949 l 441 949 l 441 1017 l 712 1085 l 712 949 l 1085 949 l 1085 746 l 407 746 q 339 678 339 746 l 339 610 q 407 543 339 543 m 746 339 l 610 339 l 610 543 l 746 543 q 1085 271 1085 543 q 746 0 1085 0 l 712 0 l 712 -68 l 441 -136 l 441 0 l 68 0 l 68 203 l 746 203 q 814 271 814 203 q 746 339 814 339 z "},"%":{"ha":1153,"x_min":27,"x_max":1126,"o":"m 1126 949 l 380 0 l 27 0 l 773 949 l 1126 949 m 814 203 l 1085 203 l 1085 0 l 814 0 l 814 203 m 68 949 l 339 949 l 339 746 l 68 746 l 68 949 z "},"&":{"ha":1153,"x_min":68,"x_max":1085,"o":"m 407 949 l 746 949 l 746 746 l 407 746 q 339 678 339 746 l 339 610 q 407 543 339 543 l 543 543 l 543 339 l 407 339 q 339 271 339 339 q 407 203 339 203 l 746 203 l 746 339 l 610 339 l 610 543 l 746 543 l 746 610 l 1017 610 l 1017 543 l 1085 543 l 1085 339 l 1017 339 l 1017 203 l 1085 203 l 1085 0 l 407 0 q 68 271 68 0 q 119 441 68 376 q 68 610 68 505 l 68 678 q 407 949 68 949 z "},"'":{"ha":407,"x_min":68,"x_max":339,"o":"m 68 949 l 339 949 l 339 610 l 68 610 l 68 949 z "},"(":{"ha":610,"x_min":68,"x_max":543,"o":"m 407 136 l 543 136 l 543 -68 l 407 -68 q 68 203 68 -68 l 68 678 l 339 678 l 339 203 q 407 136 339 136 m 407 814 q 339 746 339 814 l 68 746 q 407 1017 68 1017 l 543 1017 l 543 814 l 407 814 z "},")":{"ha":610,"x_min":68,"x_max":543,"o":"m 203 136 q 271 203 271 136 l 271 678 l 543 678 l 543 203 q 203 -68 543 -68 l 68 -68 l 68 136 l 203 136 m 203 814 l 68 814 l 68 1017 l 203 1017 q 543 746 543 1017 l 271 746 q 203 814 271 814 z "},"*":{"ha":678,"x_min":68,"x_max":610,"o":"m 475 882 l 610 949 l 610 746 l 543 712 l 610 678 l 610 475 l 475 543 l 475 475 l 203 475 l 203 543 l 68 475 l 68 678 l 136 712 l 68 746 l 68 949 l 203 882 l 203 949 l 475 949 l 475 882 z "},"+":{"ha":678,"x_min":68,"x_max":610,"o":"m 475 339 l 475 203 l 203 203 l 203 339 l 68 339 l 68 543 l 203 543 l 203 678 l 475 678 l 475 543 l 610 543 l 610 339 l 475 339 z "},",":{"ha":407,"x_min":68,"x_max":339,"o":"m 68 203 l 339 203 l 339 -136 l 68 -136 l 68 203 z "},"-":{"ha":678,"x_min":68,"x_max":610,"o":"m 610 339 l 68 339 l 68 543 l 610 543 l 610 339 z "},".":{"ha":407,"x_min":68,"x_max":339,"o":"m 68 203 l 339 203 l 339 0 l 68 0 l 68 203 z "},"/":{"ha":1153,"x_min":27,"x_max":1126,"o":"m 1126 949 l 380 0 l 27 0 l 773 949 l 1126 949 z "},":":{"ha":407,"x_min":68,"x_max":339,"o":"m 68 203 l 339 203 l 339 0 l 68 0 l 68 203 m 68 694 l 339 694 l 339 491 l 68 491 l 68 694 z "},";":{"ha":407,"x_min":68,"x_max":339,"o":"m 68 203 l 339 203 l 339 -136 l 68 -136 l 68 203 m 68 694 l 339 694 l 339 491 l 68 491 l 68 694 z "},"<":{"ha":610,"x_min":68,"x_max":543,"o":"m 407 136 l 543 136 l 543 -68 l 407 -68 q 68 203 68 -68 l 68 678 l 339 678 l 339 203 q 407 136 339 136 m 407 814 q 339 746 339 814 l 68 746 q 407 1017 68 1017 l 543 1017 l 543 814 l 407 814 z "},"=":{"ha":678,"x_min":68,"x_max":610,"o":"m 610 475 l 68 475 l 68 678 l 610 678 l 610 475 m 610 203 l 68 203 l 68 407 l 610 407 l 610 203 z "},">":{"ha":610,"x_min":68,"x_max":543,"o":"m 203 136 q 271 203 271 136 l 271 678 l 543 678 l 543 203 q 203 -68 543 -68 l 68 -68 l 68 136 l 203 136 m 203 814 l 68 814 l 68 1017 l 203 1017 q 543 746 543 1017 l 271 746 q 203 814 271 814 z "},"?":{"ha":1153,"x_min":68,"x_max":1085,"o":"m 746 746 l 68 746 l 68 949 l 746 949 q 1085 678 1085 949 l 1085 610 q 746 339 1085 339 l 678 339 l 678 543 l 746 543 q 814 610 814 543 l 814 678 q 746 746 814 746 m 475 339 l 475 271 l 203 271 l 203 543 l 610 543 l 610 339 l 475 339 m 475 203 l 475 0 l 203 0 l 203 203 l 475 203 z "},"@":{"ha":1153,"x_min":68,"x_max":1085,"o":"m 814 678 q 746 746 814 746 l 746 949 q 1085 678 1085 949 l 1085 271 q 746 0 1085 0 l 475 0 l 475 203 l 746 203 q 814 271 814 203 l 814 678 m 339 271 q 407 203 339 203 l 407 0 q 68 271 68 0 l 68 678 q 407 949 68 949 l 678 949 l 678 746 l 407 746 q 339 678 339 746 l 339 271 z "},"A":{"ha":1085,"x_min":-7,"x_max":1092,"o":"m 402 789 l 543 1060 l 1092 0 l 800 0 l 402 789 m 503 429 l 285 0 l -7 0 l 361 709 l 503 429 z "},"B":{"ha":1153,"x_min":-68,"x_max":1085,"o":"m 339 0 l 68 0 l 68 678 l 339 678 l 339 0 m 746 746 l 68 746 l -68 949 l 746 949 q 1085 678 1085 949 l 1085 610 q 1034 441 1085 505 q 1085 271 1085 376 q 746 0 1085 0 l 407 0 l 407 203 l 746 203 q 814 271 814 203 q 746 339 814 339 l 407 339 l 407 543 l 746 543 q 814 610 814 543 l 814 678 q 746 746 814 746 z "},"C":{"ha":1153,"x_min":68,"x_max":1085,"o":"m 339 271 q 407 203 339 203 l 407 0 q 68 271 68 0 l 68 678 q 407 949 68 949 l 678 949 l 678 746 l 407 746 q 339 678 339 746 l 339 271 m 814 678 q 746 746 814 746 l 746 949 q 1085 678 1085 949 l 1085 543 l 814 543 l 814 678 m 746 0 l 475 0 l 475 203 l 746 203 q 814 271 814 203 l 814 407 l 1085 407 l 1085 271 q 746 0 1085 0 z "},"D":{"ha":1153,"x_min":-68,"x_max":1085,"o":"m 339 0 l 68 0 l 68 678 l 339 678 l 339 0 m 746 746 l 68 746 l -68 949 l 746 949 q 1085 678 1085 949 l 1085 271 q 746 0 1085 0 l 407 0 l 407 203 l 746 203 q 814 271 814 203 l 814 678 q 746 746 814 746 z "},"E":{"ha":1085,"x_min":-68,"x_max":1017,"o":"m 1017 746 l 68 746 l -68 949 l 1017 949 l 1017 746 m 68 678 l 339 678 l 339 203 l 1017 203 l 1017 0 l 68 0 l 68 678 m 1017 339 l 610 339 l 407 543 l 1017 543 l 1017 339 z "},"F":{"ha":1085,"x_min":-68,"x_max":1017,"o":"m 339 0 l 68 0 l 68 678 l 339 678 l 339 0 m 1017 339 l 610 339 l 407 543 l 1017 543 l 1017 339 m 1017 746 l 68 746 l -68 949 l 1017 949 l 1017 746 z "},"G":{"ha":1153,"x_min":68,"x_max":1085,"o":"m 407 949 l 1085 949 l 1085 746 l 407 746 q 339 678 339 746 l 339 271 q 407 203 339 203 l 746 203 l 746 0 l 407 0 q 68 271 68 0 l 68 678 q 407 949 68 949 m 1085 0 l 814 0 l 814 339 l 610 339 l 475 543 l 1085 543 l 1085 0 z "},"H":{"ha":1153,"x_min":68,"x_max":1085,"o":"m 68 949 l 339 949 l 339 0 l 68 0 l 68 949 m 814 339 l 543 339 l 407 543 l 814 543 l 814 949 l 1085 949 l 1085 0 l 814 0 l 814 339 z "},"I":{"ha":407,"x_min":68,"x_max":339,"o":"m 68 949 l 339 949 l 339 0 l 68 0 l 68 949 z "},"J":{"ha":1153,"x_min":68,"x_max":1085,"o":"m 814 271 l 814 949 l 1085 949 l 1085 271 q 746 0 1085 0 l 475 0 l 475 203 l 746 203 q 814 271 814 203 m 746 746 l 339 746 l 203 949 l 746 949 l 746 746 m 68 271 l 68 407 l 339 407 l 339 271 q 407 203 339 203 l 407 0 q 68 271 68 0 z "},"K":{"ha":1153,"x_min":68,"x_max":1126,"o":"m 753 475 l 1126 0 l 773 0 l 400 475 l 773 949 l 1126 949 l 753 475 m 68 949 l 339 949 l 339 397 l 356 418 l 532 194 l 380 0 l 68 0 l 68 949 z "},"L":{"ha":1085,"x_min":68,"x_max":1017,"o":"m 339 271 l 68 271 l 68 949 l 339 949 l 339 271 m 68 203 l 1017 203 l 1017 0 l 68 0 l 68 203 z "},"M":{"ha":1356,"x_min":68,"x_max":1289,"o":"m 339 544 l 339 0 l 68 0 l 68 949 l 420 949 l 819 160 l 678 -111 l 339 544 m 1289 949 l 1289 0 l 1017 0 l 1017 544 l 860 240 l 718 521 l 936 949 l 1289 949 z "},"N":{"ha":1153,"x_min":68,"x_max":1085,"o":"m 68 1153 l 1085 136 l 1085 -203 l 68 814 l 68 1153 m 814 502 l 814 949 l 1085 949 l 1085 231 l 814 502 m 339 448 l 339 0 l 68 0 l 68 719 l 339 448 z "},"O":{"ha":1153,"x_min":68,"x_max":1085,"o":"m 814 678 q 746 746 814 746 l 746 949 q 1085 678 1085 949 l 1085 271 q 746 0 1085 0 l 475 0 l 475 203 l 746 203 q 814 271 814 203 l 814 678 m 339 271 q 407 203 339 203 l 407 0 q 68 271 68 0 l 68 678 q 407 949 68 949 l 678 949 l 678 746 l 407 746 q 339 678 339 746 l 339 271 z "},"P":{"ha":1153,"x_min":-68,"x_max":1085,"o":"m 339 0 l 68 0 l 68 678 l 339 678 l 339 0 m 746 746 l 68 746 l -68 949 l 746 949 q 1085 678 1085 949 l 1085 610 q 746 339 1085 339 l 407 339 l 407 543 l 746 543 q 814 610 814 543 l 814 678 q 746 746 814 746 z "},"Q":{"ha":1153,"x_min":68,"x_max":1085,"o":"m 339 271 q 407 203 339 203 l 407 0 q 68 271 68 0 l 68 678 q 407 949 68 949 l 678 949 l 678 746 l 407 746 q 339 678 339 746 l 339 271 m 814 678 q 746 746 814 746 l 746 949 q 1085 678 1085 949 l 1085 271 q 918 24 1085 81 l 1017 -136 l 678 -136 l 593 0 l 475 0 l 475 203 l 746 203 q 814 271 814 203 l 814 678 z "},"R":{"ha":1153,"x_min":-68,"x_max":1085,"o":"m 339 0 l 68 0 l 68 678 l 339 678 l 339 0 m 746 746 l 68 746 l -68 949 l 746 949 q 1085 678 1085 949 l 1085 610 q 867 350 1085 393 l 1085 0 l 746 0 l 407 543 l 746 543 q 814 610 814 543 l 814 678 q 746 746 814 746 z "},"S":{"ha":1153,"x_min":68,"x_max":1085,"o":"m 407 949 l 1085 949 l 1085 746 l 407 746 q 339 678 339 746 l 339 610 q 407 543 339 543 l 543 543 l 543 339 l 407 339 q 68 610 68 339 l 68 678 q 407 949 68 949 m 746 0 l 68 0 l 68 203 l 746 203 q 814 271 814 203 q 746 339 814 339 l 610 339 l 610 543 l 746 543 q 1085 271 1085 543 q 746 0 1085 0 z "},"T":{"ha":1085,"x_min":-68,"x_max":1017,"o":"m 1017 746 l 68 746 l -68 949 l 1017 949 l 1017 746 m 407 678 l 678 678 l 678 0 l 407 0 l 407 678 z "},"U":{"ha":1153,"x_min":68,"x_max":1085,"o":"m 814 271 l 814 949 l 1085 949 l 1085 271 q 746 0 1085 0 l 475 0 l 475 203 l 746 203 q 814 271 814 203 m 68 271 l 68 949 l 339 949 l 339 271 q 407 203 339 203 l 407 0 q 68 271 68 0 z "},"V":{"ha":1085,"x_min":-7,"x_max":1092,"o":"m 683 160 l 543 -111 l -7 949 l 285 949 l 683 160 m 583 521 l 800 949 l 1092 949 l 724 240 l 583 521 z "},"W":{"ha":1492,"x_min":-7,"x_max":1499,"o":"m 705 203 l 543 -111 l -7 949 l 285 949 l 543 443 l 562 481 l 705 203 m 787 923 l 800 949 l 1092 949 l 931 639 l 787 923 m 949 443 l 1207 949 l 1499 949 l 949 -111 l 400 949 l 692 949 l 949 443 z "},"X":{"ha":1153,"x_min":27,"x_max":1126,"o":"m 1126 0 l 773 0 l 27 949 l 380 949 l 1126 0 m 621 755 l 773 949 l 1126 949 l 797 531 l 621 755 m 532 194 l 380 0 l 27 0 l 356 418 l 532 194 z "},"Y":{"ha":1153,"x_min":27,"x_max":1126,"o":"m 621 755 l 773 949 l 1126 949 l 797 531 l 621 755 m 441 423 l 27 949 l 380 949 l 753 475 l 712 423 l 712 0 l 441 0 l 441 423 z "},"Z":{"ha":1153,"x_min":-68,"x_max":1126,"o":"m 27 0 l 773 949 l 1126 949 l 380 0 l 27 0 m 525 746 l 68 746 l -68 949 l 685 949 l 525 746 m 628 203 l 1085 203 l 1085 0 l 468 0 l 628 203 z "},"[":{"ha":610,"x_min":68,"x_max":543,"o":"m 543 814 l 68 814 l 68 1017 l 543 1017 l 543 814 m 68 746 l 339 746 l 339 136 l 543 136 l 543 -68 l 68 -68 l 68 746 z "},"\\":{"ha":1153,"x_min":27,"x_max":1126,"o":"m 1126 0 l 773 0 l 27 949 l 380 949 l 1126 0 z "},"]":{"ha":610,"x_min":68,"x_max":543,"o":"m 68 814 l 68 1017 l 543 1017 l 543 814 l 68 814 m 543 746 l 543 -68 l 68 -68 l 68 136 l 271 136 l 271 746 l 543 746 z "},"^":{"ha":814,"x_min":68,"x_max":746,"o":"m 610 949 l 746 610 l 475 610 l 407 780 l 339 610 l 68 610 l 203 949 l 610 949 z "},"_":{"ha":1085,"x_min":68,"x_max":1017,"o":"m 68 203 l 1017 203 l 1017 0 l 68 0 l 68 203 z "},"`":{"ha":543,"x_min":68,"x_max":475,"o":"m 68 949 l 339 949 l 475 610 l 203 610 l 68 949 z "},"a":{"ha":1085,"x_min":-7,"x_max":1092,"o":"m 402 789 l 543 1060 l 1092 0 l 800 0 l 402 789 m 503 429 l 285 0 l -7 0 l 361 709 l 503 429 z "},"b":{"ha":1153,"x_min":68,"x_max":1085,"o":"m 339 0 l 68 0 l 68 678 l 339 678 l 339 0 m 746 746 l 68 746 l 68 949 l 746 949 q 1085 678 1085 949 l 1085 610 q 1034 441 1085 505 q 1085 271 1085 376 q 746 0 1085 0 l 407 0 l 407 203 l 746 203 q 814 271 814 203 q 746 339 814 339 l 407 339 l 407 543 l 746 543 q 814 610 814 543 l 814 678 q 746 746 814 746 z "},"c":{"ha":1153,"x_min":68,"x_max":1085,"o":"m 339 271 q 407 203 339 203 l 407 0 q 68 271 68 0 l 68 678 q 407 949 68 949 l 678 949 l 678 746 l 407 746 q 339 678 339 746 l 339 271 m 814 678 q 746 746 814 746 l 746 949 q 1085 678 1085 949 l 1085 543 l 814 543 l 814 678 m 746 0 l 475 0 l 475 203 l 746 203 q 814 271 814 203 l 814 407 l 1085 407 l 1085 271 q 746 0 1085 0 z "},"d":{"ha":1153,"x_min":68,"x_max":1085,"o":"m 339 0 l 68 0 l 68 678 l 339 678 l 339 0 m 746 746 l 68 746 l 68 949 l 746 949 q 1085 678 1085 949 l 1085 271 q 746 0 1085 0 l 407 0 l 407 203 l 746 203 q 814 271 814 203 l 814 678 q 746 746 814 746 z "},"e":{"ha":1085,"x_min":68,"x_max":1017,"o":"m 1017 746 l 68 746 l 68 949 l 1017 949 l 1017 746 m 68 678 l 339 678 l 339 203 l 1017 203 l 1017 0 l 68 0 l 68 678 m 1017 339 l 543 339 l 407 543 l 1017 543 l 1017 339 z "},"f":{"ha":1085,"x_min":68,"x_max":1017,"o":"m 1017 746 l 68 746 l 68 949 l 1017 949 l 1017 746 m 1017 339 l 543 339 l 407 543 l 1017 543 l 1017 339 m 68 678 l 339 678 l 339 0 l 68 0 l 68 678 z "},"g":{"ha":1153,"x_min":68,"x_max":1085,"o":"m 407 949 l 1085 949 l 1085 746 l 407 746 q 339 678 339 746 l 339 271 q 407 203 339 203 l 746 203 l 746 0 l 407 0 q 68 271 68 0 l 68 678 q 407 949 68 949 m 1085 0 l 814 0 l 814 339 l 610 339 l 475 543 l 1085 543 l 1085 0 z "},"h":{"ha":1153,"x_min":68,"x_max":1085,"o":"m 68 949 l 339 949 l 339 0 l 68 0 l 68 949 m 814 339 l 543 339 l 407 543 l 814 543 l 814 949 l 1085 949 l 1085 0 l 814 0 l 814 339 z "},"i":{"ha":407,"x_min":68,"x_max":339,"o":"m 68 949 l 339 949 l 339 0 l 68 0 l 68 949 z "},"j":{"ha":1153,"x_min":68,"x_max":1085,"o":"m 814 271 l 814 949 l 1085 949 l 1085 271 q 746 0 1085 0 l 475 0 l 475 203 l 746 203 q 814 271 814 203 m 68 271 l 68 407 l 339 407 l 339 271 q 407 203 339 203 l 407 0 q 68 271 68 0 z "},"k":{"ha":1153,"x_min":68,"x_max":1126,"o":"m 68 949 l 339 949 l 339 0 l 68 0 l 68 949 m 753 475 l 1126 0 l 773 0 l 400 475 l 773 949 l 1126 949 l 753 475 z "},"l":{"ha":1085,"x_min":68,"x_max":1017,"o":"m 339 271 l 68 271 l 68 949 l 339 949 l 339 271 m 68 203 l 1017 203 l 1017 0 l 68 0 l 68 203 z "},"m":{"ha":1356,"x_min":68,"x_max":1289,"o":"m 339 544 l 339 0 l 68 0 l 68 949 l 420 949 l 819 160 l 678 -111 l 339 544 m 1289 949 l 1289 0 l 1017 0 l 1017 544 l 860 240 l 718 521 l 936 949 l 1289 949 z "},"n":{"ha":1153,"x_min":68,"x_max":1085,"o":"m 68 1153 l 1085 136 l 1085 -203 l 68 814 l 68 1153 m 814 502 l 814 949 l 1085 949 l 1085 231 l 814 502 m 339 448 l 339 0 l 68 0 l 68 719 l 339 448 z "},"o":{"ha":1153,"x_min":68,"x_max":1085,"o":"m 814 678 q 746 746 814 746 l 746 949 q 1085 678 1085 949 l 1085 271 q 746 0 1085 0 l 475 0 l 475 203 l 746 203 q 814 271 814 203 l 814 678 m 339 271 q 407 203 339 203 l 407 0 q 68 271 68 0 l 68 678 q 407 949 68 949 l 678 949 l 678 746 l 407 746 q 339 678 339 746 l 339 271 z "},"p":{"ha":1153,"x_min":68,"x_max":1085,"o":"m 339 0 l 68 0 l 68 678 l 339 678 l 339 0 m 746 746 l 68 746 l 68 949 l 746 949 q 1085 678 1085 949 l 1085 610 q 746 339 1085 339 l 407 339 l 407 543 l 746 543 q 814 610 814 543 l 814 678 q 746 746 814 746 z "},"q":{"ha":1153,"x_min":68,"x_max":1085,"o":"m 339 271 q 407 203 339 203 l 407 0 q 68 271 68 0 l 68 678 q 407 949 68 949 l 678 949 l 678 746 l 407 746 q 339 678 339 746 l 339 271 m 814 678 q 746 746 814 746 l 746 949 q 1085 678 1085 949 l 1085 271 q 918 24 1085 81 l 1017 -136 l 678 -136 l 593 0 l 475 0 l 475 203 l 746 203 q 814 271 814 203 l 814 678 z "},"r":{"ha":1153,"x_min":68,"x_max":1085,"o":"m 339 0 l 68 0 l 68 678 l 339 678 l 339 0 m 746 746 l 68 746 l 68 949 l 746 949 q 1085 678 1085 949 l 1085 610 q 867 350 1085 393 l 1085 0 l 746 0 l 407 543 l 746 543 q 814 610 814 543 l 814 678 q 746 746 814 746 z "},"s":{"ha":1153,"x_min":68,"x_max":1085,"o":"m 407 949 l 1085 949 l 1085 746 l 407 746 q 339 678 339 746 l 339 610 q 407 543 339 543 l 543 543 l 543 339 l 407 339 q 68 610 68 339 l 68 678 q 407 949 68 949 m 746 0 l 68 0 l 68 203 l 746 203 q 814 271 814 203 q 746 339 814 339 l 610 339 l 610 543 l 746 543 q 1085 271 1085 543 q 746 0 1085 0 z "},"t":{"ha":1085,"x_min":68,"x_max":1017,"o":"m 1017 746 l 68 746 l 68 949 l 1017 949 l 1017 746 m 407 678 l 678 678 l 678 0 l 407 0 l 407 678 z "},"u":{"ha":1153,"x_min":68,"x_max":1085,"o":"m 814 271 l 814 949 l 1085 949 l 1085 271 q 746 0 1085 0 l 475 0 l 475 203 l 746 203 q 814 271 814 203 m 68 271 l 68 949 l 339 949 l 339 271 q 407 203 339 203 l 407 0 q 68 271 68 0 z "},"v":{"ha":1085,"x_min":-7,"x_max":1092,"o":"m 683 160 l 543 -111 l -7 949 l 285 949 l 683 160 m 583 521 l 800 949 l 1092 949 l 724 240 l 583 521 z "},"w":{"ha":1492,"x_min":-7,"x_max":1499,"o":"m 705 203 l 543 -111 l -7 949 l 285 949 l 543 443 l 562 481 l 705 203 m 787 923 l 800 949 l 1092 949 l 931 639 l 787 923 m 949 443 l 1207 949 l 1499 949 l 949 -111 l 400 949 l 692 949 l 949 443 z "},"x":{"ha":1153,"x_min":27,"x_max":1126,"o":"m 1126 0 l 773 0 l 27 949 l 380 949 l 1126 0 m 621 755 l 773 949 l 1126 949 l 797 531 l 621 755 m 532 194 l 380 0 l 27 0 l 356 418 l 532 194 z "},"y":{"ha":1153,"x_min":27,"x_max":1126,"o":"m 621 755 l 773 949 l 1126 949 l 797 531 l 621 755 m 441 423 l 27 949 l 380 949 l 753 475 l 712 423 l 712 0 l 441 0 l 441 423 z "},"z":{"ha":1153,"x_min":27,"x_max":1126,"o":"m 27 0 l 773 949 l 1126 949 l 380 0 l 27 0 m 525 746 l 68 746 l 68 949 l 685 949 l 525 746 m 628 203 l 1085 203 l 1085 0 l 468 0 l 628 203 z "},"{":{"ha":678,"x_min":68,"x_max":610,"o":"m 543 814 q 475 746 475 814 l 203 746 q 543 1017 203 1017 l 610 1017 l 610 814 l 543 814 m 543 136 l 610 136 l 610 -68 l 543 -68 q 203 203 203 -68 l 203 271 q 136 339 203 339 l 68 339 l 68 543 l 136 543 q 203 610 203 543 l 203 678 l 475 678 l 475 610 q 424 441 475 505 q 475 271 475 376 l 475 203 q 543 136 475 136 z "},"|":{"ha":407,"x_min":68,"x_max":339,"o":"m 68 1017 l 339 1017 l 339 -68 l 68 -68 l 68 1017 z "},"}":{"ha":678,"x_min":68,"x_max":610,"o":"m 136 814 l 68 814 l 68 1017 l 136 1017 q 475 746 475 1017 l 203 746 q 136 814 203 814 m 136 136 q 203 203 203 136 l 203 271 q 254 441 203 376 q 203 610 203 505 l 203 678 l 475 678 l 475 610 q 543 543 475 543 l 610 543 l 610 339 l 543 339 q 475 271 475 339 l 475 203 q 136 -68 475 -68 l 68 -68 l 68 136 l 136 136 z "},"~":{"ha":678,"x_min":68,"x_max":610,"o":"m 610 339 l 68 339 l 68 543 l 610 543 l 610 339 z "}}}
